<?xml version="1.0" encoding="UTF-8" standalone="no"?>
<!-- Created with Inkscape (http://www.inkscape.org/) -->

<svg
   xmlns:dc="http://purl.org/dc/elements/1.1/"
   xmlns:cc="http://creativecommons.org/ns#"
   xmlns:rdf="http://www.w3.org/1999/02/22-rdf-syntax-ns#"
   xmlns:svg="http://www.w3.org/2000/svg"
   xmlns="http://www.w3.org/2000/svg"
   xmlns:sodipodi="http://sodipodi.sourceforge.net/DTD/sodipodi-0.dtd"
   xmlns:inkscape="http://www.inkscape.org/namespaces/inkscape"
   width="640"
   height="360"
   viewBox="0 0 169.33333 95.250003"
   version="1.1"
   id="svg8"
   inkscape:version="0.92.4 5da689c313, 2019-01-14"
   sodipodi:docname="book.svg"
   inkscape:export-filename="/home/hugh/uni/intd450/working-build/assets/images/book.svg.png"
   inkscape:export-xdpi="96"
   inkscape:export-ydpi="96">
  <defs
     id="defs2" />
  <sodipodi:namedview
     id="base"
     pagecolor="#ffffff"
     bordercolor="#666666"
     borderopacity="1.0"
     inkscape:pageopacity="0.0"
     inkscape:pageshadow="2"
     inkscape:zoom="0.98994949"
     inkscape:cx="300.3185"
     inkscape:cy="160.17974"
     inkscape:document-units="mm"
     inkscape:current-layer="g4554"
     showgrid="false"
     units="px"
     inkscape:window-width="1366"
     inkscape:window-height="715"
     inkscape:window-x="0"
     inkscape:window-y="24"
     inkscape:window-maximized="1" />
  <metadata
     id="metadata5">
    <rdf:RDF>
      <cc:Work
         rdf:about="">
        <dc:format>image/svg+xml</dc:format>
        <dc:type
           rdf:resource="http://purl.org/dc/dcmitype/StillImage" />
        <dc:title></dc:title>
      </cc:Work>
    </rdf:RDF>
  </metadata>
  <g
     inkscape:label="Layer 1"
     inkscape:groupmode="layer"
     id="layer1"
     transform="translate(0,-201.74998)">
    <path
       style="fill:#550022;stroke:none;stroke-width:0.26458332px;stroke-linecap:butt;stroke-linejoin:miter;stroke-opacity:1"
       d="m 6.2847678,212.78321 c 0,0 -3.6611173,64.30122 0.8018084,79.64632 10.0930458,-1.25582 51.6538458,-5.94902 75.2828048,-1.24184 l 5.927074,-0.0265 c 23.975625,-4.4369 74.073715,0.73382 74.073715,0.73382 0,0 -4.00904,-75.90455 0.26727,-82.58628 -11.22533,-2.93997 -74.835466,0.8018 -80.180857,3.4745 0,0 -50.51394,-8.01808 -76.1718152,0 z"
       id="path3721"
       inkscape:connector-curvature="0"
       sodipodi:nodetypes="cccccccc" />
  </g>
  <g
     transform="translate(0,-201.74998)"
     id="g3745"
     inkscape:groupmode="layer"
     inkscape:label="Layer 1 copy">
    <path
       sodipodi:nodetypes="ccccccccc"
       inkscape:connector-curvature="0"
       id="path3743"
       d="m 6.9529414,211.64731 c 0,0 -3.6611173,64.30122 0.8018084,79.64632 10.0930462,-1.25582 50.5098442,-6.26354 74.1388032,-1.55636 l 6.577371,-0.0357 c 19.119136,-4.40305 74.567426,1.05755 74.567426,1.05755 0,0 -4.00904,-75.90455 0.26727,-82.58628 -11.22533,-2.93997 -74.835472,0.8018 -80.180863,3.4745 0,0 -50.51394,-8.01811 -76.1718156,-3e-5 z"
       style="fill:#784421;stroke:none;stroke-width:0.26499999;stroke-linecap:butt;stroke-linejoin:miter;stroke-miterlimit:4;stroke-dasharray:none;stroke-opacity:1" />
  </g>
  <g
     inkscape:label="Layer 1 copy copy"
     inkscape:groupmode="layer"
     id="g4554"
     transform="translate(0,-201.74998)">
    <path
       style="fill:#e9ddaf;stroke:none;stroke-width:0.26499999;stroke-linecap:butt;stroke-linejoin:miter;stroke-miterlimit:4;stroke-dasharray:none;stroke-opacity:1"
       d="m 8.3302282,210.63178 c 0,0 -2.9261263,64.10077 1.5367992,79.44587 10.0930466,-1.25582 48.6699916,-5.99627 72.2989506,-1.28909 l 6.409799,-8.1e-4 c 28.190993,-5.12616 76.574853,0.75536 76.574853,0.75536 0,0 -4.00904,-75.90455 0.26727,-82.58628 -11.22533,-2.93997 -74.835474,0.8018 -80.180865,3.4745 0,0 -51.248931,-7.81763 -76.9068068,0.20045 z"
       id="path4552"
       inkscape:connector-curvature="0"
       sodipodi:nodetypes="cccccccc" />
    <path
       style="fill:none;stroke:#000000;stroke-width:0.26458332px;stroke-linecap:butt;stroke-linejoin:miter;stroke-opacity:1;opacity:0.448"
       d="m 85.162687,212.91686 c 0,0 1.306535,6.94485 -0.772334,72.52372"
       id="path4558"
       inkscape:connector-curvature="0"
       sodipodi:nodetypes="cc" />
  </g>
</svg>
