<?xml version="1.0" encoding="UTF-8" standalone="no"?>
<!-- Created with Inkscape (http://www.inkscape.org/) -->

<svg
   xmlns:dc="http://purl.org/dc/elements/1.1/"
   xmlns:cc="http://creativecommons.org/ns#"
   xmlns:rdf="http://www.w3.org/1999/02/22-rdf-syntax-ns#"
   xmlns:svg="http://www.w3.org/2000/svg"
   xmlns="http://www.w3.org/2000/svg"
   xmlns:sodipodi="http://sodipodi.sourceforge.net/DTD/sodipodi-0.dtd"
   xmlns:inkscape="http://www.inkscape.org/namespaces/inkscape"
   width="640"
   height="360"
   viewBox="0 0 169.33333 95.250003"
   version="1.1"
   id="svg8"
   inkscape:version="0.92.4 5da689c313, 2019-01-14"
   sodipodi:docname="book.svg"
   inkscape:export-filename="/home/hugh/uni/intd450/working-build/assets/images/book.svg.png"
   inkscape:export-xdpi="96"
   inkscape:export-ydpi="96">
  <defs
     id="defs2" />
  <sodipodi:namedview
     id="base"
     pagecolor="#ffffff"
     bordercolor="#666666"
     borderopacity="1.0"
     inkscape:pageopacity="0.0"
     inkscape:pageshadow="2"
     inkscape:zoom="0.98994949"
     inkscape:cx="246.5344"
     inkscape:cy="202.53369"
     inkscape:document-units="mm"
     inkscape:current-layer="g4554"
     showgrid="false"
     units="px"
     inkscape:window-width="1366"
     inkscape:window-height="715"
     inkscape:window-x="0"
     inkscape:window-y="24"
     inkscape:window-maximized="1" />
  <metadata
     id="metadata5">
    <rdf:RDF>
      <cc:Work
         rdf:about="">
        <dc:format>image/svg+xml</dc:format>
        <dc:type
           rdf:resource="http://purl.org/dc/dcmitype/StillImage" />
        <dc:title />
      </cc:Work>
    </rdf:RDF>
  </metadata>
  <g
     inkscape:label="Layer 1"
     inkscape:groupmode="layer"
     id="layer1"
     transform="translate(0,-201.74998)">
    <path
       style="fill:#550022;stroke:none;stroke-width:0.26458332px;stroke-linecap:butt;stroke-linejoin:miter;stroke-opacity:1"
       d="m 6.2847678,212.78321 c 0,0 -3.6611173,64.30122 0.8018084,79.64632 10.0930458,-1.25582 51.6538458,-5.94902 75.2828048,-1.24184 l 5.927074,-0.0265 c 23.975625,-4.4369 74.073715,0.73382 74.073715,0.73382 0,0 -4.00904,-75.90455 0.26727,-82.58628 -11.22533,-2.93997 -74.835466,0.8018 -80.180857,3.4745 0,0 -50.51394,-8.01808 -76.1718152,0 z"
       id="path3721"
       inkscape:connector-curvature="0"
       sodipodi:nodetypes="cccccccc" />
  </g>
  <g
     transform="translate(0,-201.74998)"
     id="g3745"
     inkscape:groupmode="layer"
     inkscape:label="Layer 1 copy">
    <path
       sodipodi:nodetypes="ccccccccc"
       inkscape:connector-curvature="0"
       id="path3743"
       d="m 6.9529414,211.64731 c 0,0 -3.6611173,64.30122 0.8018084,79.64632 10.0930462,-1.25582 50.5098442,-6.26354 74.1388032,-1.55636 l 6.577371,-0.0357 c 19.119136,-4.40305 74.567426,1.05755 74.567426,1.05755 0,0 -4.00904,-75.90455 0.26727,-82.58628 -11.22533,-2.93997 -74.835472,0.8018 -80.180863,3.4745 0,0 -50.51394,-8.01811 -76.1718156,-3e-5 z"
       style="fill:#784421;stroke:none;stroke-width:0.26499999;stroke-linecap:butt;stroke-linejoin:miter;stroke-miterlimit:4;stroke-dasharray:none;stroke-opacity:1" />
  </g>
  <g
     inkscape:label="Layer 1 copy copy"
     inkscape:groupmode="layer"
     id="g4554"
     transform="translate(0,-201.74998)">
    <path
       style="fill:#e9ddaf;stroke:none;stroke-width:0.26499999;stroke-linecap:butt;stroke-linejoin:miter;stroke-miterlimit:4;stroke-dasharray:none;stroke-opacity:1"
       d="m 8.3302282,210.63178 c 0,0 -2.9261263,64.10077 1.5367992,79.44587 10.0930466,-1.25582 48.6699916,-5.99627 72.2989506,-1.28909 l 6.409799,-8.1e-4 c 28.190993,-5.12616 76.574853,0.75536 76.574853,0.75536 0,0 -4.00904,-75.90455 0.26727,-82.58628 -11.22533,-2.93997 -74.835474,0.8018 -80.180865,3.4745 0,0 -51.248931,-7.81763 -76.9068068,0.20045 z"
       id="path4552"
       inkscape:connector-curvature="0"
       sodipodi:nodetypes="cccccccc" />
    <path
       style="fill:none;stroke:#000000;stroke-width:0.26458332px;stroke-linecap:butt;stroke-linejoin:miter;stroke-opacity:1;opacity:0.448"
       d="m 85.162687,212.91686 c 0,0 1.306535,6.94485 -0.772334,72.52372"
       id="path4558"
       inkscape:connector-curvature="0"
       sodipodi:nodetypes="cc" />
    <path
       style="fill:none;stroke:#000000;stroke-width:0.26458332px;stroke-linecap:butt;stroke-linejoin:miter;stroke-opacity:1"
       d="m 16.403667,289.11553 c -0.04454,0.0223 -0.08909,0.0445 -0.133635,0.0668 -0.01114,0 -0.02284,-0.004 -0.03341,0 -0.02362,0.008 -0.0437,0.0242 -0.06682,0.0334 -0.09733,0.0389 -0.201215,0.0671 -0.300678,0.10023 -0.03341,0.0111 -0.06682,0.0223 -0.100226,0.0334 -0.03341,0.0111 -0.06569,0.0265 -0.100226,0.0334 -0.02184,0.004 -0.04569,-0.007 -0.06682,0 -0.01494,0.005 -0.01847,0.0284 -0.03341,0.0334 -0.02998,0.0211 -0.06853,-0.0106 -0.100226,0 -0.02362,0.008 -0.04319,0.0255 -0.06682,0.0334 -0.01056,0.004 -0.02227,0 -0.03341,0 -0.05568,0 -0.112444,-0.0109 -0.167044,0 -0.02442,0.005 -0.04266,0.0274 -0.06682,0.0334 -0.05402,0.0135 -0.11212,-0.009 -0.167044,0 -0.03474,0.006 -0.06549,0.0276 -0.100226,0.0334 -0.03295,0.006 -0.06682,0 -0.100226,0 -0.100226,0 -0.200452,0 -0.300678,0 -0.03341,0 -0.06682,0 -0.100226,0 -0.02227,0 -0.04569,0.007 -0.06682,0 -0.01494,-0.005 -0.02031,-0.0247 -0.03341,-0.0334 -0.02072,-0.0138 -0.0437,-0.0242 -0.06682,-0.0334 -0.0327,-0.0131 -0.06682,-0.0223 -0.100226,-0.0334 -0.100226,-0.0334 -0.200452,-0.0668 -0.300678,-0.10023 -0.07171,-0.0239 -0.105596,-0.03 -0.167043,-0.0668 -0.09444,-0.0567 -0.07924,-0.0458 -0.133635,-0.10022 -0.02227,-0.0223 -0.04162,-0.0479 -0.06682,-0.0668 -0.01992,-0.0149 -0.0461,-0.0196 -0.06682,-0.0334 -0.0131,-0.009 -0.02081,-0.024 -0.03341,-0.0334 -0.05957,-0.0447 -0.124286,-0.0695 -0.167043,-0.13363 -0.02763,-0.0414 -0.03571,-0.0947 -0.06682,-0.13364 -0.01555,-0.0194 -0.0461,-0.0196 -0.06682,-0.0334 -0.0131,-0.009 -0.02227,-0.0223 -0.03341,-0.0334 -0.01114,-0.0111 -0.02467,-0.0203 -0.03341,-0.0334 -0.03277,-0.0492 -0.04871,-0.11272 -0.06682,-0.16705 -0.02227,-0.0668 -0.04747,-0.13273 -0.06682,-0.20045 -0.04074,-0.14258 -0.03237,-0.14567 -0.06682,-0.30068 -0.01,-0.0448 -0.02345,-0.0888 -0.03341,-0.13363 -0.01232,-0.0554 -0.01104,-0.11485 -0.03341,-0.16705 -0.01241,-0.029 -0.05512,-0.0376 -0.06682,-0.0668 -0.02482,-0.062 0.01621,-0.13563 0,-0.20045 -0.0038,-0.0153 -0.02843,-0.0185 -0.03341,-0.0334 -0.007,-0.0211 0,-0.0446 0,-0.0668 0,-0.0223 0,-0.0446 0,-0.0668 0,-0.0668 0,-0.13363 0,-0.20045 0,-0.0223 0,-0.0446 0,-0.0668 0,-0.0111 0.01114,-0.0334 0,-0.0334 -0.01575,0 -0.01847,0.0284 -0.03341,0.0334 -0.02113,0.007 -0.04454,0 -0.06682,0 -0.03341,0 -0.06682,0 -0.100226,0 -0.05568,0 -0.111362,0 -0.167043,0 -0.03341,0 -0.06727,0.006 -0.100226,0 -0.03474,-0.006 -0.06549,-0.0276 -0.100226,-0.0334 -0.03295,-0.005 -0.06727,0.006 -0.100226,0 -0.03474,-0.006 -0.06549,-0.0276 -0.100227,-0.0334 -0.03295,-0.005 -0.06682,0 -0.100226,0 -0.05568,-0.0111 -0.111955,-0.0196 -0.167043,-0.0334 -0.06833,-0.0171 -0.132123,-0.0497 -0.200452,-0.0668 -0.05509,-0.0138 -0.111612,-0.0211 -0.167044,-0.0334 -0.125849,-0.028 -0.122249,-0.0296 -0.23386,-0.0668 -0.03341,-0.0111 -0.06873,-0.0177 -0.100227,-0.0334 -0.03591,-0.018 -0.06332,-0.051 -0.100226,-0.0668 -0.136885,-0.0587 -0.103905,-0.002 -0.200452,-0.0668 -0.03855,-0.0257 -0.06168,-0.0745 -0.100226,-0.10023 -0.04869,-0.0325 -0.06959,-0.0208 -0.100226,-0.0668 -0.04422,-0.0663 -0.01995,-0.0855 -0.100226,-0.13364 -0.0302,-0.0181 -0.07093,-0.0139 -0.100226,-0.0334 -0.0023,-0.002 -0.1959438,-0.19669 -0.2004523,-0.20045 -0.099059,-0.0825 -0.1171586,-0.0636 -0.2338607,-0.13364 -0.042556,-0.0255 -0.039743,-0.0596 -0.066817,-0.10022 -0.00874,-0.0131 -0.024672,-0.0203 -0.033409,-0.0334 -0.027626,-0.0414 -0.039192,-0.0922 -0.066817,-0.13363 -0.025699,-0.0385 -0.074527,-0.0617 -0.1002263,-0.10023 -0.027625,-0.0414 -0.044545,-0.0891 -0.066817,-0.13364 -0.044545,-0.0891 -0.08909,-0.17817 -0.1336347,-0.26727 -0.011136,-0.0223 -0.019595,-0.0461 -0.033409,-0.0668 -0.014631,-0.0219 -0.094199,-0.0822 -0.100226,-0.10023 -0.00704,-0.0211 0.00704,-0.0457 0,-0.0668 -0.00498,-0.0149 -0.024672,-0.0203 -0.033409,-0.0334 -0.013814,-0.0207 -0.019595,-0.0461 -0.033409,-0.0668 -0.00874,-0.0131 -0.024672,-0.0203 -0.033409,-0.0334 -0.013814,-0.0207 -0.019595,-0.0461 -0.033409,-0.0668 -0.019219,-0.0288 -0.074131,-0.0741 -0.1002261,-0.10022 -0.011136,-0.0111 -0.026366,-0.0193 -0.033409,-0.0334 -0.00498,-0.01 0.00498,-0.0234 0,-0.0334 -0.00704,-0.0141 -0.026366,-0.0193 -0.033409,-0.0334 -0.00498,-0.01 0.00498,-0.0234 0,-0.0334 -0.012761,-0.0255 -0.092685,-0.0776 -0.100226,-0.10023 -0.010565,-0.0317 0.010565,-0.0685 0,-0.10022 -0.00787,-0.0236 -0.025535,-0.0432 -0.033409,-0.0668 -0.00352,-0.0106 0,-0.0223 0,-0.0334 0,-0.0223 0,-0.0445 0,-0.0668 0,-0.0223 0,-0.0446 0,-0.0668 0,-0.0223 0.00704,-0.0457 0,-0.0668 -0.00498,-0.0149 -0.028428,-0.0185 -0.033409,-0.0334 -0.00704,-0.0211 0.00704,-0.0457 0,-0.0668 -0.00498,-0.0149 -0.028428,-0.0185 -0.033409,-0.0334 -0.010565,-0.0317 0,-0.0668 0,-0.10023 0,-0.0557 0,-0.11136 0,-0.16704"
       id="path824"
       inkscape:connector-curvature="0" />
    <path
       style="fill:none;stroke:#000000;stroke-width:0.26458332px;stroke-linecap:butt;stroke-linejoin:miter;stroke-opacity:1"
       d="m 155.75132,288.58098 c 0,0 5.39189,0.13488 5.07812,-4.14267 3.4745,2.6727 3.67495,-4.00905 3.67495,-4.00905"
       id="path830"
       inkscape:connector-curvature="0"
       sodipodi:nodetypes="ccc" />
  </g>
</svg>
